<?xml version="1.0" standalone="no"?>
<!DOCTYPE svg PUBLIC "-//W3C//DTD SVG 1.1//EN" "http://www.w3.org/Graphics/SVG/1.1/DTD/svg11.dtd" >
<!--
2013-9-30: Created.
-->
<svg>
<metadata>
Created by iconfont
</metadata>
<defs>

<font id="iconfont" horiz-adv-x="1024" >
  <font-face
    font-family="iconfont"
    font-weight="500"
    font-stretch="normal"
    units-per-em="1024"
    ascent="896"
    descent="-128"
  />
    <missing-glyph />
    
    <glyph glyph-name="iconfontxiaoxi1" unicode="&#58955;" d="M855.603709 315.855994 855.603709 423.173185c0 151.450341-109.069091 278.669814-256.588913 314.5193l0 1.811252c0 50.92074-38.22151 92.197842-85.370343 92.197842-47.145763 0-85.368296-41.277102-85.368296-92.197842l0-2.102894c-146.913001-36.242436-255.395738-163.18357-255.395738-314.225611l0-88.310302-0.074701 0c1.765203-109.005646-85.570911-130.383536-85.570911-189.224666 0-58.840106 47.696302-81.796958 106.539478-81.796958l149.013849 0c2.081405-70.88442 77.971839-127.863133 171.293271-127.863133 93.319385 0 169.20982 56.977689 171.290201 127.863133l148.627039 0c58.842153 0 106.545618 22.956851 106.545618 81.796958C940.54324 200.879356 863.263156 223.34809 855.603709 315.855994zM514.185782-20.961148c-70.879304 0-128.334877 37.293371-128.334877 83.301218 0 0.502443 0.01535 1.001817 0.029676 1.502213l256.613472 0c0.013303-0.500397 0.029676-0.99977 0.029676-1.502213C642.521682 16.333246 585.064063-20.961148 514.185782-20.961148zM898.048403 142.328845c-2.666736-27.628244-39.147602-36.425607-62.10036-36.425607l-643.935891 0c-17.5804-2.38942-62.765509 6.200212-62.098313 35.827997l0 7.522324c0.588401 26.750247 66.307172 49.552579 85.193311 144.290267l0 41.319058-0.676405 0 0 80.935334c0 145.368832 111.338784 265.62573 256.209266 285.726533l0 35.963073c0 28.412097 19.150152 51.443649 42.774199 51.443649 23.624047 0 42.772152-23.031553 42.772152-51.443649l0-35.918048c145.033187-19.960611 256.546957-140.290163 256.546957-285.772582l0-80.935334-0.25071 0 0-37.259602 0.330528 0c0.862647-68.061119 84.568071-124.622322 85.23629-145.087423L898.049426 142.328845zM850.489224 334.672548l-0.074701 0 0 88.310302c0 151.043065-108.482737 277.984199-255.395738 314.226634l0 2.102894c0 50.92074-38.22151 92.197842-85.368296 92.197842-47.148833 0-85.370343-41.277102-85.370343-92.197842l0-1.811252c-147.519822-35.848463-256.588913-163.068959-256.588913-314.5193l0-107.318214c-7.659447-92.50688-84.939531-114.976638-84.939531-170.2188 0-58.840106 47.703465-81.796958 106.545618-81.796958l148.627039 0c2.081405-70.885444 77.971839-127.863133 171.290201-127.863133 93.321432 0 169.211866 56.977689 171.293271 127.863133l149.013849 0c58.842153 0 106.539478 22.956851 106.539478 81.796958C936.060135 204.289012 848.724021 225.667925 850.489224 334.672548zM509.110183-21.152507c-70.879304 0-128.336924 37.293371-128.336924 83.301218 0 0.502443 0.01535 1.001817 0.029676 1.502213l256.613472 0c0.013303-0.500397 0.029676-0.99977 0.029676-1.502213C637.446084 16.141888 579.99051-21.152507 509.110183-21.152507zM893.381104 141.541923c0.667196-29.627784-44.517913-38.217417-62.098313-35.827997L187.346899 105.713926c-22.952758 0-59.432601 8.79634-62.10036 36.425607l0 10.188037c0.667196 20.465101 84.373643 77.026304 85.23629 145.087423l0.331551 0 0 37.259602-0.251733 0 0 80.935334c0 145.482419 111.512746 265.811971 256.546957 285.772582l0 35.918048c0 28.412097 19.148106 51.443649 42.772152 51.443649 23.624047 0 42.774199-23.031553 42.774199-51.443649l0-35.963073c144.870482-20.100804 256.209266-140.357701 256.209266-285.726533l0-80.935334-0.676405 0 0-41.319058c18.886139-94.737688 84.603887-117.537973 85.193311-144.290267L893.382127 141.541923z"  horiz-adv-x="1024" />

    
    <glyph glyph-name="m-denglu" unicode="&#58881;" d="M875.052 72.57c-19.82 51.561-48.233 97.907-84.444 137.749-36.403 40.054-78.866 71.533-126.209 93.566-8.993 4.185-18.089 7.989-27.278 11.418 20.349 11.52 39.263 25.873 56.248 42.858 49.285 49.285 76.429 114.814 76.429 184.514 0 69.7-27.142 135.229-76.429 184.514s-114.815 76.429-184.515 76.429-135.229-27.143-184.515-76.429c-49.285-49.287-76.429-114.814-76.429-184.514 0-69.7 27.143-135.229 76.429-184.514 16.985-16.985 35.9-31.338 56.247-42.858-9.189-3.43-18.285-7.233-27.278-11.418-47.343-22.032-89.806-53.512-126.209-93.566-36.213-39.843-66.136-85.633-84.445-137.749-15.279-43.489-13.683-86.441-14.458-106.501h61.381c-2.025 143.259 134.198 310.977 319.279 310.977 185.079 0 324.882-173.856 325.42-310.977h61.38c-1.092 38.772-0.14 53.279-20.6 106.501zM309.306 542.676c0 110.029 89.516 199.545 199.546 199.545 110.029 0 199.546-89.516 199.546-199.545s-89.517-199.545-199.546-199.545c-110.030 0-199.546 89.516-199.546 199.545z"  horiz-adv-x="1024" />

    
    <glyph glyph-name="duanxin" unicode="&#58925;" d="M1002.59243166 631.36175297c0 70.68153519-57.29856113 127.98009631-127.98009631 127.9800963L148.69709017 759.34184927c-70.68153519 0-127.98009631-57.29856113-127.98009631-127.9800963l0-493.0994189c0-70.68153519 57.29856113-127.98009631 127.98009631-127.98009633l725.91524409 0c70.68153519 0 127.98009631 57.29856113 127.9800963 127.98009633L1002.59243166 631.36175297zM876.69643021 713.22857005c13.25475654 0 25.76832513-3.80940666 36.84113629-9.45097288L532.60701214 342.9513087c-1.34965648-1.27655104-1.27092696-1.00774346-1.92663584-2.05372788-1.56785167-1.17307644-6.65605814-4.31102964-16.98093398-4.31102965-10.32825007 0-15.41533215 3.02773013-16.98205837 4.19743343-0.74343561 1.1843235-0.72768991 0.7872995-2.19319245 2.13245848l-388.1163526 356.56137262c12.75988201 8.30601357 27.96714166 13.74962995 44.29461663 13.74962995L876.69643021 713.2274456499999zM956.47915132 137.26921190999997c0-44.90646158-34.87513624-80.87481928-79.78272111-80.87481929L150.70133115 56.39439261999996c-44.90758596 0-82.74634303 35.96835768-82.74634302 80.87481929L67.95498813 630.57445345c0 11.68353064 3.14357618 22.7900819 7.59406932 32.8439025l386.31793428-354.01614442c5.3986281-5.82826893 21.41005844-19.42831161 51.66824201-19.42831162 30.5539839 0 46.49568195 13.86885027 51.74134853 19.5970188l381.16786836 361.49324442c6.87087911-11.93659142 10.03469958-25.75595368 10.03469958-40.4885842L956.47915132 137.26921190999997z"  horiz-adv-x="1024" />

    
    <glyph glyph-name="triangle-up" unicode="&#58890;" d="M511.744 576.001l-383.744-383.744h767.488l-383.744 383.744z"  horiz-adv-x="1024" />

    
    <glyph glyph-name="guanbi1" unicode="&#58896;" d="M150.656081 22.641991c65.479724-65.479724 142.143031-109.866167 229.98992-133.169561s175.693779-23.303394 263.540669 0 164.50508 67.689837 229.984805 133.169561c65.474608 65.479724 109.871283 142.137915 133.169561 229.984804 23.30851 87.852006 23.303394 175.693779 0 263.540669-23.30851 87.84689-67.689837 164.50508-133.169561 229.984805S732.028444 856.023552 644.18667 879.326946c-87.852006 23.303394-175.693779 23.303394-263.545785 0-87.841774-23.303394-164.510196-67.694953-229.984804-133.174677C85.181473 680.677661 40.789914 604.014354 17.481404 516.167464c-23.298278-87.84689-23.303394-175.688663 0.005116-263.540669 23.303394-87.84689 67.694953-164.50508 133.169561-229.984804zM331.537487 565.275978c7.070316 7.070316 15.552649 10.605474 25.436768 10.605475s18.366451-3.535158 25.436768-10.605475L512.413778 435.273223l129.301863 129.306979c7.070316 7.0652 15.547533 10.600358 25.436767 10.600358 9.889234 0 18.371567-3.530042 25.441884-10.600358 6.599644-6.60476 10.012018-14.959193 10.242238-25.078648 0.225104-10.109222-3.192386-18.714339-10.242238-25.794887L563.282197 384.399688l130.007871-130.007872c7.070316-7.0652 10.605474-15.547533 10.605475-25.436767s-3.535158-18.366451-10.605475-25.436768c-6.60476-6.599644-14.959193-10.017134-25.073531-10.242238-10.114338-0.23022-18.709223 3.18727-25.800004 10.242238L512.413778 333.531269l-129.301863-129.306979c-7.070316-7.0652-15.670318-10.48269-25.794888-10.242238-10.129686 0.240452-18.489235 3.657942-25.073531 10.242238-7.070316 7.070316-10.605474 15.552649-10.605475 25.441883 0 9.889234 3.535158 18.366451 10.605475 25.436768L461.540243 384.399688 331.537487 514.407559c-7.070316 7.070316-10.48269 15.670318-10.242238 25.794888 0.240452 10.129686 3.652826 18.489235 10.242238 25.073531z"  horiz-adv-x="1025" />

    
    <glyph glyph-name="guanbi" unicode="&#59051;" d="M513.77 845c251-0.07 454.8-203.81 454.8-454.65 0-251.13-204-455.19-455-455.08S58.43 139.68 58.77 390.53c0.34 251.06 204.06 454.55 455 454.47z m-0.36-61.31c-216.66-0.26-393-176.66-393.09-393.28-0.12-217.1 176.57-393.78 393.68-393.57s393.4 176.92 393.09 393.63C906.79 607.41 730 784 513.41 783.71zM468.63 384.26a30.88 30.88 0 0 0-4.65 3.19q-55.9 55.79-111.73 111.65c-8.74 8.73-15.18 18.63-15.69 31.37-0.75 18.7 13.38 30.64 31.84 27.15 10.72-2 19.34-7.64 26.93-15.26q37.21-37.37 74.56-74.59 18.56-18.56 37.09-37.14c1.28-1.29 2.15-3 4.29-6 2.06 3 3 4.91 4.35 6.31q55.43 55.56 110.93 111c7.45 7.46 15.75 13.22 26.29 15.42 21.44 4.48 37-11.29 32.23-32.72-2.28-10.31-7.95-18.5-15.29-25.83Q614 443.19 558.4 387.5c-1.28-1.28-2.81-2.32-5.45-4.47 2.48-1.75 4.33-2.7 5.73-4.1q55.55-55.44 111-110.94c7.34-7.32 13-15.49 15.34-25.8 4.82-21.65-11-37.55-32.66-32.75-10.28 2.28-18.49 8-25.82 15.32q-55.43 55.55-110.94 111a71.6 71.6 0 0 0-4.56 5.79 58.72 58.72 0 0 0-4.32-5.73q-55.62-55.71-111.31-111.37c-8.47-8.48-18-14.8-30.38-15.62-19.42-1.3-31.85 13.07-28.06 32.27 2.08 10.52 7.68 19 15.17 26.44q37 36.86 73.87 73.85 19.08 19.09 38.17 38.18c1.19 1.19 2.3 2.43 4.45 4.69z"  horiz-adv-x="1024" />

    
    <glyph glyph-name="huodongguanli" unicode="&#58902;" d="M132.992 57.585v-55.375c0-12.108 9.815-21.925 21.925-21.925H471.69v414.11H132.992v-336.81zM793.982-19.714h51.556c12.11 0 21.924 9.816 21.924 21.925v7.585c0.644 2.856 0.996 5.834 0.996 8.906V394.396H529.792V-19.71h264.012c0.058 0 0.118-0.004 0.178-0.004zM172.228 615.06H120.67c-12.109 0-21.925-9.816-21.925-21.924v-168.829h370.42V609.23c13.635 1.323 25.706 2.927 35.542 4.25 0.288 0 0.574 0.268 0.612 0.307l0.01-0.01h1.279v0.352h-1.587l-0.017 0.012h1.618v-0.341c7.597-1.28 16.5-2.322 25.71-3.247v-186.226h370.402V533.103c0.324 1.502 0.5 3.06 0.5 4.658v55.375c0 12.108-9.815 21.924-21.924 21.924h-51.557c-1.091 0-2.164-0.082-3.213-0.236H695.455c44.125 9.84 78.756 30.227 84.442 67.647 6.672 42.698-45.049 107.419-107.629 99.212-74.886-10.203-129.785-74.925-168.52-125.155-38.402 49.27-88.539 106.775-160.297 123.48-69.512 16.115-117.123-54.507-115.843-98.2 1.244-37.087 35.256-57.171 80.59-66.998h-132.65a22.05 22.05 0 0 1-3.32 0.25zM656.75 741.931c50.149 24.281 96.802-41.409 72.997-72.963-18.4-23.952-76.484-26.235-107.917-27.554-25.723-1.293-51.77-0.684-77.445 1.634 29.832 37.474 64.415 75.535 112.365 98.883zM277.76 668.674c-12.664 13.781-4.124 32.524 3.82 46.619 14.598 24.96 34.883 40.119 69.514 25.99 48.234-19.734 83.772-61.492 112.68-98.879-61.299-6.602-152.698-9.219-186.014 26.27z"  horiz-adv-x="1024" />

    
    <glyph glyph-name="zhishi" unicode="&#59033;" d="M580.608 21.504h-137.216c-20.48 0-37.376-15.872-37.376-35.328 0-19.456 16.896-35.328 37.376-35.328h137.216c20.48 0 37.376 15.872 37.376 35.328 0 19.456-16.896 35.328-37.376 35.328zM635.392 128h-247.296c-20.48 0-37.376-15.872-37.376-35.328 0-19.456 16.896-35.328 37.376-35.328h247.296c20.48 0 37.376 15.872 37.376 35.328 0 19.456-16.896 35.328-37.376 35.328zM512 817.664c-172.544 0-312.832-133.632-312.832-297.984 0-87.552 39.936-168.96 108.544-225.28 13.824-11.264 22.016-28.16 22.016-46.592v-25.088c0-32.768 26.624-59.392 59.392-59.392h245.248c32.768 0 59.392 26.624 59.392 59.392v25.088c0 17.92 8.192 34.816 22.016 46.592 68.608 56.32 108.544 137.216 108.544 225.28 0.512 164.352-139.776 297.984-312.32 297.984z m30.208-531.968h-50.176v50.176h50.176v-50.176z m79.36 223.744c-7.168-13.312-21.504-29.184-43.008-48.128-14.336-12.8-23.552-22.016-28.16-28.16-4.608-6.144-7.68-12.8-9.728-20.992-2.048-7.68-3.584-20.48-3.584-37.888h-42.496v13.312c0 17.408 2.56 32.256 7.168 44.544 3.584 9.216 9.216 18.944 17.408 28.672 5.632 7.168 16.384 17.408 31.744 30.72s25.088 24.064 29.696 32.256c4.608 8.192 6.656 16.896 6.656 26.112 0 16.896-6.656 32.256-19.968 45.056-13.312 12.8-29.696 19.456-49.152 19.456-18.944 0-34.304-5.632-47.104-17.408-12.288-11.776-20.992-30.208-24.576-54.784l-45.056 5.632c4.096 33.28 16.384 58.88 36.352 76.8 19.968 17.92 46.592 26.624 79.872 26.624 34.816 0 62.976-9.728 83.968-28.672 20.992-18.944 31.232-41.984 31.232-69.12-0.512-16.896-4.096-31.232-11.264-44.032z"  horiz-adv-x="1024" />

    
    <glyph glyph-name="jiantou" unicode="&#59677;" d="M596.6 154.2c-23.7-23.7-23.7-62 0-85.7 23.7-23.7 62-23.7 85.7 0l251.3 251.3c35.5 35.5 35.4 93.1 0 128.5L682.3 699.5c-23.7 23.7-62 23.7-85.7 0-23.7-23.7-23.7-62 0-85.7L826.5 384 596.6 154.2zM457.7 293.1c50.2 0 90.9 40.7 90.9 90.9s-40.7 90.9-90.9 90.9-90.9-40.7-90.9-90.9 40.7-90.9 90.9-90.9z m-303 0c50.2 0 90.9 40.7 90.9 90.9s-40.7 90.9-90.9 90.9-90.9-40.7-90.9-90.9 40.7-90.9 90.9-90.9z"  horiz-adv-x="1024" />

    
    <glyph glyph-name="out" unicode="&#58880;" d="M672.311 726.927c-18.245 8.031-39.55-0.251-47.582-18.498s0.252-39.55 18.498-47.581c119.068-52.406 196.005-170.305 196.005-300.363 0-87.609-34.117-169.974-96.067-231.923s-144.315-96.067-231.923-96.067-169.977 34.117-231.924 96.067c-61.95 61.949-96.066 144.315-96.066 231.923 0 130.802 77.55 248.97 197.566 301.045 18.29 7.936 26.682 29.195 18.747 47.483-7.936 18.29-29.198 26.683-47.484 18.747-146.418-63.53-241.026-207.695-241.026-367.275 0-54.010 10.586-106.422 31.463-155.781 20.158-47.658 49.008-90.452 85.748-127.194 36.741-36.74 79.534-65.589 127.194-85.747 49.36-20.878 101.773-31.463 155.782-31.463 54.009 0 106.422 10.586 155.781 31.463 47.66 20.158 90.452 49.008 127.194 85.747 36.74 36.741 65.589 79.535 85.747 127.194 20.878 49.36 31.463 101.772 31.463 155.781 0.001 158.672-93.859 302.509-239.116 366.441zM512 396.686c19.936 0 36.098 16.162 36.098 36.098v363.59c0 19.936-16.161 36.098-36.098 36.098s-36.098-16.162-36.098-36.098v-363.59c0-19.936 16.162-36.098 36.098-36.098z"  horiz-adv-x="1024" />

    
    <glyph glyph-name="xiaoxi" unicode="&#58969;" d="M511.99 0.003h-85.336L192.004-128V106.65C75.031 188.764 0 306.612 0 448.012 0 695.42 229.231 896 511.99 896s511.989-200.58 511.989-447.988c0.021-247.45-229.21-448.01-511.99-448.01z m0 832.017c-247.408 0-448.031-171.929-448.031-384.008 0-130.136 76.524-250.544 192.046-319.985v-142.233l170.628 78.21h85.335c247.408 0 448.03 171.929 448.03 384.008 0.022 212.1-200.6 384.008-448.009 384.008z m256.026-448.01c-35.371 0-64.023 28.652-64.023 64.023s28.652 64.023 64.023 64.023c35.329 0 63.98-28.651 63.98-64.023s-28.651-64.022-63.98-64.022z m-256.027 0c-35.371 0-64.022 28.652-64.022 64.023s28.65 64.023 64.022 64.023c35.372 0 64.023-28.651 64.023-64.023s-28.651-64.022-64.023-64.022z m-256.005 0c-35.329 0-63.98 28.652-63.98 64.002s28.651 64.023 63.98 64.023c35.371 0 64.023-28.652 64.023-64.023s-28.673-64.001-64.023-64.001z"  horiz-adv-x="1024" />

    
    <glyph glyph-name="wode" unicode="&#59182;" d="M748.449 286.64c-1.002 0-2.009-0.047-3.019-0.141-8.51-0.795-16.203-4.871-21.66-11.478-11.245-13.608-9.337-33.872 4.252-45.174 77.948-64.862 122.653-160.27 122.653-261.763 0-17.691 14.341-32.084 31.969-32.084 17.604 0 31.927 14.393 31.927 32.084 0 120.254-52.765 233.295-144.826 310.363l-0.992 0.825c-5.771 4.805-12.887 7.368-20.304 7.368zM512.024 832c-143.186 0-259.677-116.886-259.677-260.559 0-86.095 42.486-166.593 113.65-215.333l11.023-7.551-12.42-4.927c-155.01-61.494-255.171-208.899-255.171-375.531 0-17.691 14.331-32.083 31.946-32.083 17.614 0 31.944 14.392 31.944 32.083 0 187.365 151.94 339.797 338.7 339.797 4.487 0 9.004 1.046 13.426 3.108l1.222 0.57 1.347 0.082C664.643 320.064 771.67 434.174 771.67 571.44 771.648 715.113 655.168 832 512.017 832h0.007z m0-457.049c-107.966 0-195.803 88.134-195.803 196.466 0 108.306 87.837 196.42 195.803 196.42 107.955 0 195.783-88.114 195.783-196.42 0-108.331-87.828-196.466-195.783-196.466z"  horiz-adv-x="1024" />

    
    <glyph glyph-name="icon-copy-copy1" unicode="&#58903;" d="M423.681 424.323c-22.436-22.98-22.436-60.243 0-83.228l408.778-419.697c22.438-22.982 58.818-22.982 81.258 0s22.439 60.245 0 83.228l-368.245 378.084 368.245 378.084c22.439 22.986 22.439 60.247 0 83.229-22.438 22.982-58.818 22.983-81.258 0l-408.777-419.698zM559.255 4.626l-368.245 378.084 368.245 378.084c22.439 22.986 22.439 60.247 0 83.229-22.438 22.982-58.818 22.983-81.258 0l-408.777-419.699c-22.436-22.98-22.436-60.243 0-83.228l408.778-419.697c22.438-22.982 58.818-22.982 81.258 0 22.438 22.982 22.439 60.247 0 83.228z"  horiz-adv-x="1024" />

    
    <glyph glyph-name="qiaquan" unicode="&#58923;" d="M996.224 486.016c27.776 20.48 27.776 34.048 27.776 54.4V703.808c0 40.768-41.664 81.6-90.24 81.6H90.24C41.728 778.56 0 744.512 0 703.744V547.2c0-27.2 0-47.616 27.776-61.248 41.664-13.568 97.28-47.616 97.28-102.016 0-74.88-55.616-95.232-90.304-108.8a62.144 62.144 0 0 1-34.752-54.464v-156.48c0-40.768 41.664-81.6 90.24-81.6h843.52c48.576 0 90.24 33.984 90.24 81.6V220.8c0 27.2-6.912 40.832-27.776 54.4-69.44 27.2-90.24 54.4-90.24 108.8-7.04 47.68 20.8 74.88 90.24 102.08zM708.992 410.88H553.92v-73.216h155.136v-44.288H553.92v-173.696h-44.288V293.312H334.656v44.288h174.848V410.88H334.72v44.352H458.24L358.4 554.368l31.36 31.424 131.392-130.624h21.12l131.456 130.624 31.232-31.36-99.84-99.264h103.872v-44.352z"  horiz-adv-x="1024" />

    
    <glyph glyph-name="yanzhengma" unicode="&#59878;" d="M909.17169837-46.40085941999996H114.15073209c-42.63155056 0-63.10922135 22.46498727-72.77787907 41.31516169-9.75280011 19.00517315-14.10496965 43.92469102-14.10496965 80.79911136v43.47519232h44.26790464v-43.47519232c0-71.99070188 19.29967312-77.8474752 42.61494408-77.8474752h795.02096628c23.28205696 0 42.55183649 5.85677333 42.55183648 77.8474752v43.47519232h44.26790574v-43.47519232c0-24.82983928-1.60092538-56.44534284-14.07397035-80.78914683-9.65758639-18.85570955-30.11532811-41.32512514-72.74577187-41.32512622z m86.81974222 699.01970953h-44.26790574v40.23348454c0 72.00288111-19.26867272 77.85854655-42.55183648 77.85854653H114.15073209c-23.31527098 0-42.61494408-5.86120166-42.61494408-77.85854653v-40.23348454H27.26788337v40.23348454c0 36.87663505 4.35216956 61.7939382 14.09943345 80.81129057 9.67308604 18.84463821 30.14632744 41.31405379 72.78341527 41.31405379h795.02096628c42.63044374 0 63.09372169-22.47495179 72.75130808-41.33176813 12.46750875-24.34269717 14.06843415-55.96484376 14.06843414-80.79468305v-40.23237772z m0 0M282.99851063 211.67469299000004h-43.53276263V489.06652387c-10.48351271-9.99415699-24.22866229-19.99274231-41.23212612-29.98911401-17.01453517-9.99526382-32.28643009-17.49503425-45.83118661-22.48934464v42.08130192c24.34380505 11.44340408 45.62415162 25.30923155 63.84879059 41.59416092 18.21356763 16.28603617 31.11286181 32.08160981 38.69123843 47.40000479h28.05604634v-355.98883986z m340.26966095 41.83883822v-41.83883822H388.92196122c-0.32217777 10.4812991 1.36842513 20.55627697 5.08066748 30.2315777 5.96084478 15.95832328 15.51546652 31.67750327 28.6572244 47.15754109 13.13954318 15.4767163 32.12257365 33.37364238 56.95130611 53.69299077 38.53291712 31.59336089 64.57728959 56.62359214 78.1176178 75.08958909 13.54475652 18.46156754 20.31492008 35.91453006 20.31492007 52.35888755 0 17.25146265-6.16677295 31.8048242-18.50363819 43.65454843-12.33022331 11.85083211-28.4147607 17.77514029-48.24364656 17.77514027-20.96370502 0-37.72913345-6.28966555-50.30292728-18.86235256-12.57822322-12.57711534-18.94760177-29.9880072-19.10592306-52.24153007l-44.74397542 4.59352537c3.06345741 33.37917859 14.58989707 58.80465864 34.58263937 76.30522911 19.99274231 17.48949804 46.83536332 26.24033614 80.53671969 26.24033613 34.0168911 0 60.94254769-9.43283703 80.77143354-28.30072474 19.83331418-18.86235257 29.75107862-42.23851644 29.75107863-70.13291994 0-14.18800524-2.9051361-28.13465358-8.70655275-41.83773141-5.80363026-13.70861297-15.44128868-28.13576039-28.90079491-43.29140683-13.46614926-15.15453854-35.83481601-35.95660072-67.11264107-62.39511628-26.11855142-21.92580998-42.88840819-36.80024248-50.30292726-44.61665341-7.4211621-7.82637653-13.54475652-15.68375237-18.3829603-23.58319995h173.88859007z m46.9183989 51.75660267l43.53276264 5.80363026c4.99541829-24.67151796 13.50268479-42.44665825 25.51737442-53.32984917 12.00804555-10.88319093 26.63447814-16.32257169 43.89258381-16.32257278 20.47213458 0 37.76124066 7.09234241 51.87506696 21.28145447 14.10496965 14.18468374 21.15966866 31.76275355 21.15966865 52.72202915 0 19.99385021-6.53102137 36.47806471-19.58974366 49.45928659-13.0598291 12.97457883-29.66693624 19.46795788-49.81799986 19.46795786-8.22716047 0-18.46710268-1.61531823-30.71761193-4.84152527l4.83709588 38.21738236c2.90402929-0.32882078 5.237882-0.48603421 7.01262833-0.48603422 18.5401748 0 35.22699599 4.83598907 50.06710661 14.51128981 14.82682565 9.67419393 22.24688093 24.57962575 22.24687985 44.7362256 0 15.9638584-5.40284524 29.18090095-16.20632211 39.66330685-10.80458367 10.48240591-24.75012522 15.72028789-41.83883823 15.72028789-16.93039169 0-31.03979077-5.32313118-42.31933731-15.96275159-11.28951107-10.64183404-18.54570994-26.5979426-21.76638186-47.88604008l-43.53387052 7.74112625c5.32423907 29.18090095 17.41089078 51.7931382 36.27767167 67.83560385 18.86345938 16.04135884 42.32044413 24.06369793 70.37538473 24.06369903 19.34838678 0 37.16006259-4.15177651 53.44499194-12.4520091 16.28492936-8.30687453 28.74358148-19.63402901 37.36599076-33.98146238 8.62351717-14.35186169 12.93804331-29.58832898 12.93804332-45.7082951 0-15.31839607-4.10859796-29.26615122-12.33022331-41.83883824-8.22716047-12.5715802-20.39906354-22.57570172-36.52013537-29.98800719 20.9581688-4.83709697 37.24420605-14.87664613 48.85035868-30.10979192 11.61279674-15.2353605 17.41532019-34.30253333 17.41532019-57.19487662 0-30.9611835-11.28951107-57.20041283-33.85967767-78.71990267-22.57570172-21.52281027-51.11114033-32.2908595-85.61517246-32.29085841-31.11396863 0-56.95130612 9.27230102-77.50979778 27.81247582-20.55074184 18.54681673-32.27978816 42.56844404-35.18381637 72.07705895z m0 0"  horiz-adv-x="1024" />

    
    <glyph glyph-name="qyhd" unicode="&#58899;" d="M183.689 769.888c-2.332-0.003-4.663-0.32-6.994-0.491v-771.31h95.384c0.106 1.757 0.307 3.514 0.307 5.27 0.014 253.348 0.014 506.696 0 760.044 0 2.068-0.176 4.136-0.285 6.508-29.952 0.001-59.182 0.013-88.412-0.021zM847.255 757.98v6.988c-2.007-1.015-3.033-1.49-4.018-2.038-42.144-23.417-86.887-39.745-134.308-48.39-51.553-9.398-102.519-7.836-152.862 8.247-61.712 19.716-124.392 35.395-189.145 41.213-15.163 1.362-30.431 1.53-46.15 2.271v-484.027c1.995 1.266 3.462 2.154 4.884 3.105 34.615 23.152 71.708 41.115 111.792 52.55 60.494 17.257 119.83 16.78 177.653-11.233 23.37-11.322 48.211-18.69 74.111-21.866 31.007-3.803 60.752-0.044 87.918 16.378 29.98 18.123 48.988 45.32 61.266 77.406 4.08 10.666 8.413 22.157 8.479 33.294 0.63 108.7 0.38 217.402 0.38 326.103z"  horiz-adv-x="1024" />

    
    <glyph glyph-name="fanli" unicode="&#58882;" d="M639.324398 458.433067a35.384775 35.384775 0 0 1-48.902554 0l-79.516348-79.516348-79.516348 79.516348a35.384775 35.384775 0 0 1-48.902554 0 35.782357 35.782357 0 0 1 0-49.300136L452.858562 339.158545h-39.758174a31.011376 31.011376 0 0 1-30.613794-31.011376 31.408957 31.408957 0 0 1 30.613794-31.408958h66.396151v-39.758174H412.305224a31.408957 31.408957 0 0 1-30.613794-31.408957 31.011376 31.011376 0 0 1 30.613794-31.011376h66.396151v-60.034843a31.011376 31.011376 0 0 1 31.011376-31.011375h3.180654a31.011376 31.011376 0 0 1 30.613794 31.011375v61.227588h67.986477a31.011376 31.011376 0 0 1 30.613794 31.011376 31.408957 31.408957 0 0 1-30.613794 31.408958H543.507199v39.758174h67.986477a31.408957 31.408957 0 0 1 30.613794 31.408957 31.011376 31.011376 0 0 1-30.613794 31.011376h-41.746082l69.576804 70.371968a34.987193 34.987193 0 0 1 0 47.709809zM707.310876 749.4629a203.561851 203.561851 0 0 1-390.822851 0A463.580309 463.580309 0 0 1 58.457476 333.194819a458.014165 458.014165 0 0 1 453.640765-461.194819 458.014165 458.014165 0 0 1 453.243184 461.194819 463.580309 463.580309 0 0 1-258.030549 416.268081z m-195.212635 83.889748A144.322172 144.322172 0 0 0 654.830086 687.440149 148.297989 148.297989 0 0 0 637.734071 617.465763H386.06483a148.297989 148.297989 0 0 0-17.493597 69.974386 144.719753 144.719753 0 0 0 143.527008 145.912499z m0-897.341988a394.401086 394.401086 0 0 0-390.82285 397.58174 399.967231 399.967231 0 0 0 186.465836 338.342061A210.718322 210.718322 0 0 1 318.873516 617.465763H312.909789a31.011376 31.011376 0 0 1-30.613794-31.011376 31.408957 31.408957 0 0 1 30.613794-31.408957h397.581741a31.011376 31.011376 0 0 1 30.613794 31.408957 30.613794 30.613794 0 0 1-30.216213 31.011376h-5.963726a210.718322 210.718322 0 0 1 11.132289 54.468698 399.967231 399.967231 0 0 0 186.465836-338.739642 394.401086 394.401086 0 0 0-390.425269-397.184159z"  horiz-adv-x="1024" />

    
    <glyph glyph-name="mima" unicode="&#58883;" d="M761.59427428 572.05242825h-27.75161259v68.09720279c0 141.44990766-92.0834414 224.59258698-222.89416229 224.59258697-131.29140677 0-220.81118887-85.53008648-220.81118889-224.59258697v-68.09720279H262.38569698C201.24242006 572.05242825 151.44333648 516.74147741 151.44333648 448.8205258v-422.29879502C151.44333648-41.52740341000003 201.24242006-96.74221802 262.38569698-96.74221802h499.19255413C822.72152804-96.74221802 872.47254301-41.52740341000003 872.47254301 26.505707609999945V448.80450262c0 67.93697385-49.75101497 123.2639488-110.87826873 123.26394881z m-416.06589798 68.09720279c0 105.01389817 64.65228574 162.952601 165.35603134 162.95260099 99.71032748 0 167.45502792-56.08004919 167.45502792-162.95260099v-68.09720279H345.5283763v68.09720279z m416.04987481-675.31595483H262.38569698c-14.837179 0.11216036-29.00139683 6.68153751-39.4162629 18.26607287-10.41486608 11.55248995-16.18310041 27.17478953-16.08696323 43.4219817V448.78848038c-0.20829752 33.79223527 24.64317567 61.36759669 55.50322613 61.62396281h499.19255413c30.84402729-0.28841152 55.66345506-27.84775071 55.4391353-61.62396281v-422.29879595c0.24034294-33.77621303-24.56306166-61.38361987-55.4391353-61.68805364zM527.98081121 191.66946459999997a56.08004919 56.08004919 0 1 1 0 112.16009931 56.08004919 56.08004919 0 0 1 0-112.16009931z"  horiz-adv-x="1024" />

    
    <glyph glyph-name="jcf-phone" unicode="&#58884;" d="M752.37110901 864.74221802H271.62889099C204.32498047 864.74221802 151.44333648 811.86057404 151.44333648 744.55666352v-721.11332704c0-67.30391052 52.88164399-120.18555451 120.18555451-120.1855545h480.74221802c67.30391052 0 120.18555451 52.88164399 120.18555451 120.1855545V744.55666352c0 67.30391052-52.88164399 120.18555451-120.18555451 120.18555449z m72.1113327-841.29888154c0-40.86308853-31.24824417-72.1113327-72.1113327-72.1113327H271.62889099c-40.86308853 0-72.1113327 31.24824417-72.1113327 72.1113327v120.18555451h624.96488342v-120.18555451z m0 168.25977631H199.51755829V672.44533082h624.96488342v-480.74221803z m0 528.81643982H199.51755829V744.55666352c0 40.86308853 31.24824417 72.1113327 72.1113327 72.1113327h480.74221802c40.86308853 0 72.1113327-31.24824417 72.1113327-72.1113327v-24.03711091zM512-0.5937744100000373c26.44082199 0 48.0742218 21.63339981 48.0742218 48.0742218s-21.63339981 48.0742218-48.0742218 48.0742218-48.0742218-21.63339981-48.0742218-48.0742218 21.63339981-48.0742218 48.0742218-48.0742218z"  horiz-adv-x="1024" />

    
    <glyph glyph-name="jinpairenzheng" unicode="&#58894;" d="M517.3 797.2c-229 0-414.7-185.7-414.7-414.7s185.7-414.7 414.7-414.7S932 153.5 932 382.5 746.4 797.2 517.3 797.2z m240.1-362.3c0.1-4.3-1.2-8.5-3.7-12-2.7-3.6-6.2-7.9-10.3-13.1L644.3 315c4.9-24.3 9.7-48.6 14.4-72.9 1.9-9.2 3.7-18.3 5.3-27.5 1.3-8.4 2.7-16.7 4.4-25.1l3.6-19c0.9-5.3 1.5-8.6 1.8-10 1.6-5-0.2-10.4-4.4-13.6-4-2.2-8.5-3.3-13.1-3.3-2.4 0.2-4.8 0.8-6.9 1.8l-6.9 2.8-124.9 77.5c-22.6-14.3-43.2-27-61.8-38.2-7.9-4.7-15.9-9.6-23.7-14.3-7.8-4.6-14.8-9-21.3-13.1s-11.9-7.6-16.5-10.3c-4.6-2.6-7.7-4.4-9.3-5.1-2.3-1.2-4.9-1.9-7.6-2-0.7-0.1-1.5-0.1-2.2 0-3.3 0.5-6.4 1.8-9 3.9-2.6 1.9-4.7 4.4-6 7.4-1.2 2.7-1.6 5.8-0.9 8.7l2.4 9.9c1.4 5.3 2.8 11.5 4.4 18.9 1.6 7.3 3.4 15.5 5.5 24.2 2.1 9 4.3 18 6.5 27l16.2 71.4c-16.9 15.5-33.8 31-50.7 46.4l-18.9 17.2c-6.2 5.6-11.8 10.9-16.8 15.2l-12.2 11.3-5.3 4.6c-3.8 3.8-7 8-9.8 12.5-2.6 4.2-3.7 9.1-3.1 14 0.4 4.3 2.3 8.2 5.3 11.3 2.6 2.6 5.9 4.3 9.5 5.1L440.1 466l55.1 136.7c1.7 5.2 4.5 9.9 8.1 14 3.7 4 8.9 6.2 14.4 5.9 3 0 5.9-0.8 8.4-2.3 2.3-1.4 4.3-3.2 5.9-5.4 1.5-1.9 2.9-4 4.1-6.1 1.1-2.1 2-3.7 2.7-5.1L592.3 467l147.9-14.8c4.9-1 9.4-3.1 13.4-6.1 2.8-3 4.2-7.1 3.8-11.2z"  horiz-adv-x="1024" />

    
    <glyph glyph-name="baibaoxiang" unicode="&#58979;" d="M908.23293156 662.37750992h-183.37566087V671.21489163c0 48.6055974-39.7682157 88.3738131-88.37381311 88.3738118H384.61809147c-48.6055974 0-88.3738131-39.7682157-88.37381312-88.3738118v-8.83738171h-183.37566086c-48.6055974 0-88.3738131-39.7682157-88.37381311-88.3738131V96.78510836999999c0-48.6055974 39.7682157-88.3738131 88.37381311-88.3738118h795.36431407c48.6055974 0 88.3738131 39.7682157 88.37381309 88.3738118V574.00369682c0 48.6055974-39.7682157 88.3738131-88.37381309 88.3738131zM406.71154506 715.4017975300001h209.88780467c33.14017975 0 59.65232355-22.0934536 64.07101376-53.02428761H340.43118555c6.62803595 30.93083402 33.14017975 53.02428761 66.28035951 53.02428761z m545.7082924-596.52323556c0-35.3495255-28.72148955-66.2803595-66.28035949-66.2803595h-751.17740688c-37.55886996 0-66.2803595 30.93083402-66.2803595 66.2803595V386.20934575h322.56441583c8.8373817-59.65232355 59.65232355-106.0485752 119.3046471-106.04857521 61.86166931 0 112.67661117 46.39625165 119.30464712 106.04857521h322.56441582V118.87856196999996zM435.43303332 386.20934575h150.23548241c-6.62803595-35.3495255-37.55886996-61.86166931-75.11774121-61.8616693s-68.48970526 26.51214381-75.1177412 61.8616693z m516.98680414 44.1869059h-883.73812587v123.72333732c0 37.55886996 28.72148955 66.2803595 66.2803595 66.2803595h751.17740688c37.55886996 0 66.2803595-28.72148955 66.28035949-66.2803595v-123.72333732z"  horiz-adv-x="1024" />

    
    <glyph glyph-name="qianbaojinqianjiaoyifukuanyuexianxing" unicode="&#59824;" d="M625.777778 526.222222h284.444444a56.888889 56.888889 0 0 0 56.888889-56.888889v-170.666666a56.888889 56.888889 0 0 0-56.888889-56.888889H625.777778a142.222222 142.222222 0 0 0 0 284.444444z m0-56.888889a85.333333 85.333333 0 0 1 0-170.666666h284.444444v170.666666H625.777778z m0-128a42.666667 42.666667 0 1 0 0 85.333334 42.666667 42.666667 0 0 0 0-85.333334z m256-156.444444a28.444444 28.444444 0 0 0 56.888889 0v-56.888889c0-62.407111-47.928889-113.777778-108.088889-113.777778H193.422222C133.262222 14.222222 85.333333 65.592889 85.333333 128V640c0 62.407111 47.928889 113.777778 108.088889 113.777778h637.155556C890.737778 753.777778 938.666667 702.407111 938.666667 640v-56.888889a28.444444 28.444444 0 0 0-56.888889 0V640c0 31.857778-23.381333 56.888889-51.2 56.888889H193.422222C165.603556 696.888889 142.222222 671.857778 142.222222 640v-512c0-31.857778 23.381333-56.888889 51.2-56.888889h637.155556c27.818667 0 51.2 25.031111 51.2 56.888889v56.888889z"  horiz-adv-x="1024" />

    
    <glyph glyph-name="shezhi" unicode="&#58924;" d="M907.7 517.2c-34.4 0-65.3 17.8-82.5 47.6-17.2 29.8-17.2 65.4 0 95.2 14.4 25 5.8 57-19.2 71.4l-140 81c-25 14.5-57 5.9-71.5-19.2-17.2-29.8-48-47.6-82.5-47.6-34.4 0-65.3 17.8-82.5 47.6-14.5 25-46.6 33.6-71.4 19.1l-140.2-80.9c-25-14.4-33.6-46.5-19.1-71.4 17.2-29.8 17.2-65.4 0-95.2-17.2-29.8-48.1-47.6-82.5-47.6-28.8 0-52.3-23.5-52.3-52.3V303c0-28.8 23.5-52.3 52.3-52.3 34.4 0 65.3-17.8 82.5-47.6 17.2-29.8 17.2-65.4 0-95.2-7-12.1-8.9-26.2-5.2-39.7 3.6-13.5 12.3-24.7 24.4-31.7l140.2-80.9c8.2-4.7 17.1-7 26-7 18.1 0 35.7 9.3 45.4 26.1 17.2 29.9 48.1 47.6 82.5 47.6s65.3-17.8 82.5-47.7c14.5-24.8 46.5-33.5 71.4-19l140 80.9c25 14.4 33.6 46.4 19.2 71.4-17.2 29.8-17.2 65.4 0 95.2s48 47.6 82.5 47.6c28.8 0 52.3 23.5 52.3 52.3V464.9c0 28.9-23.5 52.3-52.3 52.3z m4.3-214.1c0-2.3-1.9-4.3-4.3-4.3-51.8 0-98.2-26.8-124.1-71.7-25.9-44.8-25.9-98.4 0-143.3 1-1.7 0.2-4.8-1.6-5.8l-140-80.8c-2-1.2-4.7-0.4-5.9 1.5-25.9 44.9-72.3 71.7-124 71.7h-0.1c-51.8 0-98.2-26.8-124.1-71.7-1.2-1.9-3.8-2.7-5.8-1.5L242 78.1l-1.5 5.7c25.9 44.9 25.9 98.5 0 143.4-25.9 44.8-72.3 71.6-124.1 71.6-2.3 0-4.2 1.9-4.2 4.3V464.9c0 2.3 1.9 4.2 4.2 4.2 51.8 0 98.2 26.8 124.1 71.7 25.9 44.9 25.9 98.4 0 143.3-1.2 2-0.5 4.6 1.5 5.8l140.2 80.9c0.5 0.3 1.1 0.4 1.8 0.4 1.6 0 3.3-0.8 4-2 25.9-44.9 72.3-71.7 124.2-71.7 51.8 0 98.2 26.8 124 71.6 1.2 2.1 3.7 2.9 5.8 1.6l140-80.8c2-1.2 2.8-3.8 1.6-5.8-25.9-44.9-25.9-98.4 0-143.3 25.9-44.9 72.3-71.7 124.1-71.7 2.3 0 4.3-1.9 4.3-4.2v-161.8zM512 570.5c-102.9 0-186.6-83.7-186.6-186.6 0-102.8 83.7-186.5 186.6-186.5 102.8 0 186.5 83.7 186.5 186.5 0.1 103-83.6 186.6-186.5 186.6z m0-325c-76.3 0-138.5 62.2-138.5 138.5S435.7 522.5 512 522.5 650.5 460.3 650.5 384 588.4 245.5 512 245.5z"  horiz-adv-x="1024" />

    
    <glyph glyph-name="Group" unicode="&#58934;" d="M361.411765 143.05882399999996h216.847059v72.282352H361.411765v-72.282352z m-72.282353 72.282352H144.564706v-72.282352h144.564706v72.282352z m-198.776471-150.588235c-6.023529 0-12.047059 0-12.047059 6.02353-6.023529 6.023529-6.023529 6.023529-6.023529 12.047058v361.411765h939.670588v-355.388235c0-6.023529 0-12.047059-6.023529-12.047059-6.023529-6.023529-6.023529-6.023529-12.047059-6.023529h-903.529412z m903.529412 752.941177c6.023529 0 12.047059 0 12.047059-6.02353 6.023529-6.023529 6.023529-6.023529 6.023529-12.047059v-132.517647H72.282353V799.623529c0 6.023529 0 12.047059 6.023529 12.047059 6.023529 6.023529 6.023529 6.023529 12.047059 6.02353h903.529412zM90.352941 896C66.258824 896 42.164706 883.952941 24.094118 865.882353 6.023529 847.811765 0 829.741176 0 799.623529v-716.8c0-24.094118 6.023529-48.188235 24.094118-66.258823 18.070588-12.047059 42.164706-24.094118 66.258823-24.094118h903.529412c24.094118 0 48.188235 12.047059 66.258823 30.117647 18.070588 18.070588 24.094118 42.164706 24.094118 66.258824V799.623529c0 24.094118-6.023529 48.188235-24.094118 66.258824-24.094118 18.070588-42.164706 30.117647-66.258823 30.117647h-903.529412zM993.882353 203.29411800000003m-271.058824 0a271.058824 271.058824 0 1 1 542.117647 0 271.058824 271.058824 0 1 1-542.117647 0ZM993.882353-97.88235299999997c-168.658824 0-301.176471 132.517647-301.176471 301.176471s132.517647 301.176471 301.176471 301.17647 301.176471-132.517647 301.176471-301.17647-132.517647-301.176471-301.176471-301.176471z m0 542.117647c-132.517647 0-240.941176-108.423529-240.941177-240.941176s108.423529-240.941176 240.941177-240.941177 240.941176 108.423529 240.941176 240.941177-108.423529 240.941176-240.941176 240.941176zM1144.470588 124.98823500000003h-192.752941V317.741176h60.235294v-132.517647H1144.470588z"  horiz-adv-x="1325" />

    
    <glyph glyph-name="arrow_left" unicode="&#58895;" d="M658.25822846 384.1721736l-378.20582873-378.21230145c-15.89692997-15.88398459-15.89692997-41.6660088 0-57.55128794 15.8839846-15.89822451 41.6660088-15.89822451 57.55128793 0l406.98729813 406.98729813c15.89692997 15.88398459 15.89692997 41.6660088 0 57.55128795l-406.98729813 406.9860036c-7.94328684 7.94846498-18.3604363 11.92399202-28.77499669 11.92399201s-20.83170987-3.97552703-28.77499671-11.92399201c-15.89692997-15.88398459-15.89692997-41.6660088 0-57.55128794l378.20582875-378.2110069z"  horiz-adv-x="1024" />

    


  </font>
</defs>
</svg>
