<?xml version="1.0" standalone="no"?><!DOCTYPE svg PUBLIC "-//W3C//DTD SVG 1.1//EN" "http://www.w3.org/Graphics/SVG/1.1/DTD/svg11.dtd"><svg t="1536919330101" class="icon" style="" viewBox="0 0 1024 1024" version="1.1" xmlns="http://www.w3.org/2000/svg" p-id="7616" xmlns:xlink="http://www.w3.org/1999/xlink" width="200" height="200"><defs><style type="text/css"></style></defs><path d="M774.4 947.2c-108.8 0-198.4-89.6-198.4-198.4s89.6-198.4 198.4-198.4S972.8 640 972.8 748.8 883.2 947.2 774.4 947.2m0-332.8c-76.8 0-134.4 57.6-134.4 134.4s57.6 134.4 134.4 134.4 134.4-57.6 134.4-134.4S851.2 614.4 774.4 614.4m217.6 409.6c-6.4 0-19.2-6.4-25.6-6.4L870.4 921.6c-12.8-12.8-12.8-32 0-44.8s32-12.8 44.8 0L1011.2 972.8c12.8 12.8 12.8 32 0 44.8-6.4 0-12.8 6.4-19.2 6.4M691.2 787.2c-19.2 0-32-12.8-32-32 0-70.4 57.6-121.6 121.6-121.6 19.2 0 32 12.8 32 32s-12.8 32-32 32c-32 0-57.6 25.6-57.6 57.6 0 19.2-12.8 32-32 32M838.4 0H153.6C70.4 0 0 70.4 0 153.6v684.8c0 83.2 70.4 153.6 153.6 153.6h441.6c19.2 0 32-12.8 32-32s-12.8-32-32-32H153.6c-44.8 0-83.2-38.4-83.2-83.2V153.6C64 102.4 102.4 64 153.6 64h684.8C883.2 64 921.6 102.4 921.6 147.2v384c0 19.2 12.8 32 32 32s32-12.8 32-32v-384C992 70.4 921.6 0 838.4 0z m-614.4 524.8c-6.4 0-19.2 0-25.6-6.4C192 505.6 192 486.4 204.8 473.6l128-128-128-128c-12.8-12.8-12.8-32 0-44.8s32-12.8 44.8 0L396.8 320c6.4 6.4 6.4 12.8 6.4 25.6s0 19.2-6.4 25.6l-147.2 147.2c-6.4 6.4-12.8 6.4-25.6 6.4z m198.4 0c-6.4 0-19.2 0-25.6-6.4-12.8-12.8-12.8-32 0-44.8l128-128-128-128c-12.8-12.8-12.8-32 0-44.8s32-12.8 44.8 0L588.8 320c12.8 12.8 12.8 32 0 44.8l-147.2 153.6c-6.4 6.4-12.8 6.4-19.2 6.4z m192 0c-6.4 0-19.2 0-25.6-6.4-12.8-12.8-12.8-32 0-44.8l128-128-128-128c-12.8-12.8-12.8-32 0-44.8s32-12.8 44.8 0l153.6 147.2c6.4 6.4 6.4 12.8 6.4 25.6s-6.4 19.2-6.4 25.6L640 518.4c-6.4 6.4-19.2 6.4-25.6 6.4z" fill="#87898c" p-id="7617"></path></svg>